<svg width="311" height="74" viewBox="0 0 311 74" fill="none" xmlns="http://www.w3.org/2000/svg">
<path d="M7.0155 11.5873H20.8514V0H7.0155V11.5873Z" fill="#2D2D2D"/>
<path d="M7.0155 58.5143C7.0155 60.1469 6.68028 61.2882 6.02018 61.9048C5.33596 62.5432 4.45544 62.8543 3.32924 62.8543C2.61173 62.8543 1.77253 62.7751 0.836901 62.619L0 62.4789V73.3888L0.586635 73.4979C1.4729 73.6644 2.33047 73.7907 3.13293 73.8733C3.94342 73.9571 4.94219 73.9996 6.10283 73.9996C10.8935 73.9996 14.5878 72.794 17.0813 70.415C19.5828 68.0268 20.8525 64.5146 20.8525 59.4936V14.963H7.0155V58.5143Z" fill="white"/>
<path d="M53.5117 40.8322C53.5117 43.5625 52.8769 45.6292 51.6244 46.976C50.3673 48.3274 48.6855 48.9842 46.4813 48.9842C44.2851 48.9842 42.6481 48.3331 41.4748 46.9921C40.2935 45.643 39.6942 43.5705 39.6942 40.8322V14.9639H25.8584V44.8083C25.8584 50.0267 27.2234 53.3816 29.9166 56.3853C32.6282 59.4141 36.4993 60.9492 41.4231 60.9492C43.0602 60.9492 44.5584 60.7449 45.8763 60.343C47.1839 59.9411 48.395 59.3889 49.4776 58.7C50.5498 58.0168 51.5383 57.2234 52.4154 56.3405C52.7931 55.9604 53.1593 55.678 53.5117 55.2784V60.9469H67.3487V14.9639H53.5117V40.8322Z" fill="white"/>
<path d="M124.791 14.9633C121.699 14.9633 118.901 15.5833 116.473 16.8073C114.333 17.8854 112.348 19.4331 110.562 21.4172C109.402 19.4963 107.849 17.9681 105.938 16.867C103.743 15.604 101.111 14.9633 98.1166 14.9633C96.4772 14.9633 94.9664 15.1677 93.6267 15.5695C92.2881 15.9714 91.062 16.5248 89.9806 17.2137C88.9061 17.898 87.9165 18.6914 87.0417 19.5721C86.6651 19.9521 86.2989 20.3413 85.9465 20.7409V14.9633H72.1095V60.9464H85.9465V35.8933C85.9465 33.1584 86.5572 31.0882 87.7615 29.7391C88.9635 28.3946 90.5891 27.7413 92.7324 27.7413C94.8654 27.7413 96.4462 28.3889 97.5655 29.723C98.6986 31.0744 99.2738 33.1503 99.2738 35.8933V60.9464H113.111V35.8933C113.111 33.1584 113.721 31.0882 114.926 29.7391C116.127 28.3946 117.753 27.7413 119.897 27.7413C122.03 27.7413 123.61 28.3889 124.73 29.723C125.863 31.0744 126.438 33.1503 126.438 35.8933V60.9464H140.274V31.7541C140.274 26.3118 138.889 22.1095 136.158 19.2632C133.419 16.41 129.594 14.9633 124.791 14.9633Z" fill="white"/>
<path d="M223.785 14.9641L214.752 44.6041L205.331 14.9629H190.628L208.023 60.9494C207.583 61.7646 206.423 62.3307 205.96 62.6326C205.456 62.961 204.724 63.1275 203.782 63.1275C203.05 63.1275 202.237 62.9759 201.365 62.6774C200.466 62.3686 199.62 61.822 198.85 61.3605L198.165 60.9494L191.837 68.2093C191.837 68.2093 193.847 70.1635 194.491 70.7227C195.906 71.9512 197.297 72.593 199.082 73.151C200.886 73.7148 202.989 73.9995 205.332 73.9995C207.242 73.9995 209.664 73.7699 211.143 73.3152C212.65 72.8514 214.013 72.0878 215.199 71.0476C216.365 70.0234 217.441 68.6892 218.401 67.0818C219.344 65.4996 220.241 64.1528 221.068 61.8932L238.235 14.9641H223.785Z" fill="white"/>
<path d="M190.114 28.3476C188.97 25.4749 187.661 23.0086 185.755 21.0177C183.844 19.0233 181.62 17.4974 179.146 16.4847C176.677 15.4755 174.088 14.9634 171.451 14.9634C168.069 14.9634 165.211 15.6661 162.958 17.0531C161.317 18.0635 159.84 19.292 158.547 20.718V14.9634H144.71V74H158.547V55.5776C159.803 56.8084 161.255 57.9233 162.882 58.9027C165.133 60.261 168.016 60.9487 171.451 60.9487C174.142 60.9487 176.758 60.4367 179.227 59.4274C181.704 58.4136 183.915 56.8877 185.8 54.8898C187.676 52.9024 188.971 50.4384 190.114 47.5645V48.3774C191.258 45.5036 191.837 42.1612 191.837 38.4446V38.2816C191.837 34.5661 191.258 31.2238 190.114 28.3476ZM169.748 48.8562C163.562 48.8562 158.546 43.8399 158.546 37.6524C158.546 31.4649 163.562 26.4497 169.748 26.4497C175.935 26.4497 180.95 31.4649 180.95 37.6524C180.95 43.8399 175.935 48.8562 169.748 48.8562Z" fill="white"/>
<path d="M271.148 7.532H311V47.3895H271.148V7.532Z" fill="#00D6ED"/>
<path d="M262.409 16.2719H302.261V56.1294H262.409V16.2719Z" fill="#00AAFF"/>
<path d="M252.072 26.6103H291.924V66.4679H272.12C261.048 66.4679 252.072 57.4915 252.072 46.4174V26.6103Z" fill="#0C70F1"/>
</svg>
